<?xml version="1.0" standalone="no"?>
<!DOCTYPE svg PUBLIC "-//W3C//DTD SVG 20010904//EN"
 "http://www.w3.org/TR/2001/REC-SVG-20010904/DTD/svg10.dtd">
<svg version="1.0" xmlns="http://www.w3.org/2000/svg"
 width="1800.000000pt" height="1800.000000pt" viewBox="0 0 1800.000000 1800.000000"
 preserveAspectRatio="xMidYMid meet">
<metadata>
Created by potrace 1.11, written by Peter Selinger 2001-2013
</metadata>
<g transform="translate(0.000000,1800.000000) scale(0.100000,-0.100000)"
fill="#000000" stroke="none">
<path d="M0 9178 l0 -5998 20 0 c11 0 47 13 78 29 135 68 383 133 632 165 237
31 435 37 910 31 757 -11 1178 21 1566 120 259 66 413 144 544 275 97 96 140
172 186 325 41 138 43 264 8 490 -20 131 -28 220 -28 325 -1 169 8 205 85 340
162 284 65 486 -302 624 l-61 23 143 57 c177 71 253 112 314 171 85 83 123
210 105 352 -12 95 -9 83 -151 551 -65 216 -119 396 -119 400 0 4 51 8 113 8
124 2 181 10 370 55 148 36 209 70 303 172 103 111 150 258 126 396 -28 164
-98 278 -265 434 -64 59 -136 138 -165 179 -176 255 -355 764 -461 1309 -56
288 -96 679 -89 874 4 115 6 124 49 225 l44 105 0 180 c-1 192 -12 303 -70
660 -108 671 -203 994 -388 1330 -438 794 -1202 1338 -2267 1614 -360 93 -802
159 -1152 173 l-78 3 0 -5997z"/>
<path d="M10943 10350 c-149 -22 -268 -84 -367 -191 -67 -72 -110 -153 -137
-257 -47 -184 -8 -356 121 -532 141 -191 337 -515 451 -742 339 -677 527
-1362 580 -2112 23 -335 3 -857 -47 -1201 -137 -955 -545 -1902 -1138 -2644
-288 -361 -632 -699 -980 -963 -218 -166 -286 -254 -326 -419 -25 -106 -25
-185 0 -283 29 -113 73 -190 161 -279 59 -60 94 -85 151 -111 99 -46 220 -70
310 -62 152 15 231 54 435 210 1400 1077 2304 2613 2567 4366 249 1656 -127
3341 -1057 4735 -189 282 -264 367 -381 423 -106 53 -243 77 -343 62z"/>
<path d="M9052 9510 c-107 -28 -187 -75 -268 -155 -122 -122 -182 -280 -171
-454 8 -140 33 -198 166 -398 195 -293 329 -545 439 -823 357 -901 386 -1900
84 -2825 -148 -452 -393 -911 -682 -1275 -227 -286 -483 -536 -779 -759 -67
-51 -139 -115 -162 -143 -191 -243 -174 -583 41 -798 180 -180 462 -225 689
-110 127 64 483 356 721 592 432 427 762 891 1036 1452 271 557 434 1134 511
1801 23 201 26 849 5 1040 -102 929 -385 1719 -879 2461 -131 196 -177 250
-263 309 -101 68 -188 97 -315 101 -77 3 -117 0 -173 -16z"/>
<path d="M7133 8740 c-85 -22 -129 -44 -208 -102 -174 -128 -264 -365 -221
-582 22 -110 58 -181 168 -327 117 -156 180 -259 269 -443 120 -248 202 -537
230 -804 17 -166 7 -535 -20 -687 -95 -554 -348 -1028 -752 -1406 -225 -210
-252 -240 -291 -314 -106 -203 -94 -430 33 -619 139 -209 399 -303 648 -236
143 39 245 114 502 370 460 459 767 986 949 1629 308 1092 82 2298 -600 3206
-54 72 -123 154 -152 181 -146 133 -361 185 -555 134z"/>
</g>
</svg>
