<svg version="1" xmlns="http://www.w3.org/2000/svg" width="2400" height="2400" viewBox="0 0 1800.000000 1800.000000"><path d="M0 882.5c0 324.2.2 589.5.4 589.5s3.6-1.5 7.7-3.4c16.3-7.5 41.7-13.7 70.9-17.2 12.5-1.6 24-1.8 83-1.9 70.5-.2 86.9-.8 116.9-4.6 37.2-4.7 60.8-11.8 78.8-23.6 13.4-8.8 19.9-17.5 25.5-34.3 2.9-8.7 3.2-10.6 3.2-22.5 0-9.2-.7-17.3-2.4-27.5-1.9-11.2-2.4-18.3-2.4-31-.1-15.4.1-17 2.7-24.3 1.5-4.3 4.7-11.2 7.2-15.5 8.4-14.5 8-24.7-1.4-33.5-5.4-5.1-13.3-9.2-29.5-15.7-22.2-8.8-21.3-10.8 11.5-24.1 19.1-7.7 24.2-10.4 30-15.6 7.3-6.6 9.7-18.9 6.4-34-.8-3.7-7.9-28.4-15.9-54.8-7.9-26.4-14.4-48.1-14.3-48.2.1-.1 3.1.5 6.7 1.4 15.3 3.6 51.5-.5 65.8-7.4 11.9-5.7 22.3-19.7 23.7-32.1 1.7-15.5-7.2-33.1-23.5-46.6-18.7-15.3-34.4-43.5-48.4-86.4-15.8-48.9-26.6-110.5-26.7-152.2 0-15.8.6-19.3 6.2-32.5l3.4-8-.1-16c-.3-40-16.1-126.9-29.1-160-27.9-70.7-76.3-122.2-148.8-158.4-44.4-22.1-91-36.1-146.5-44-16.6-2.4-45.5-5.1-54.7-5.1H0v589.5zM1029.3 684c-7.3 1.5-19.3 7.1-25.3 11.9-7.8 6.3-11.9 11.4-16.4 20.4-7.5 15.2-8.4 31.2-2.6 46.3 4.6 12.1 8 16.6 27.1 35.5 15.8 15.7 25 25.7 36.1 39 2 2.4 5.4 6.4 7.5 8.9 2.1 2.5 5.4 6.7 7.3 9.3 1.9 2.6 5.1 6.9 7.1 9.5 2 2.6 6.2 8.4 9.3 13 3.1 4.6 6.5 9.5 7.5 11 5.6 8.1 10.1 15.3 10.1 16 0 .5 1.3 2.6 3 4.8 1.6 2.1 3 4.2 3 4.7 0 .4 2.4 4.9 5.3 10 18.3 31.8 36.3 75 47.4 113.7.8 3 2.2 7.5 2.9 10 5.1 16.8 15.8 72.5 14.6 76.4-.2.5.2 3.2.7 6 .6 2.8 1.3 8.9 1.5 13.6.3 4.7.8 11.2 1.2 14.5.8 8.5.8 57.8 0 71.5-1.5 24.4-6.3 60-10.6 79-7.1 31-10.4 43-17.6 64.5-6.5 19.8-17.6 46.1-27.6 66-3.9 7.7-8.6 17.1-10.6 21-1.9 3.8-4.4 8.3-5.6 10-1.2 1.6-4.8 7.5-7.9 13-3.2 5.5-6.6 11.1-7.6 12.5-1 1.4-4.2 6.1-7.1 10.5-5.1 7.7-6.8 10-17.7 24.3-6.9 9-22.6 28.4-25.4 31.3-8.7 9-13 14.3-16.3 19.7-9.3 15.4-11.3 26.5-7.7 43.6 2.6 12.4 6.8 20.9 14 28.5 9.8 10.4 20.8 16.1 35.9 18.5 8 1.3 9.5 1.3 17.8-.4 18.1-3.7 26.2-8.8 40.9-25.5 3.3-3.8 7.8-8.9 10-11.4 4.9-5.5 16.9-20.1 21-25.5 6.7-8.8 14.5-19.3 16.7-22.4 1.3-1.8 3.5-4.9 5.1-6.9 1.5-2 5.7-8.4 9.4-14.2 3.7-5.8 7.2-11.3 7.9-12.1.7-.9 3.8-5.8 6.9-11 3.1-5.2 6-10.2 6.5-11 3.9-6.3 8.2-14.2 13.3-24 3.2-6.3 7.2-14 8.8-17 1.6-3 4.9-10.2 7.4-16 2.5-5.8 4.9-11.2 5.4-12.1.5-.9 3-6.7 5.6-13 15.1-36.9 29.2-83.4 36.5-120.3 6.5-33.4 8.1-43.5 10.9-72.6 3.1-32.3 3.6-85.5 1-110.5-.5-4.4-1.1-11.2-1.3-15-.3-3.9-1-11.1-1.6-16-.6-5-1.3-10.8-1.5-13-.6-7.1-11.7-64.7-13.9-72.5-.7-2.5-2.3-8.3-3.5-13-1.3-4.7-2.8-10.3-3.5-12.5-.7-2.2-2-6.5-2.9-9.5-7.2-23.9-17.6-52.3-25.9-70.5-2.2-5-5.4-12.2-7.1-16-3.5-8.2-19.5-39.6-23-45.2-1.3-2.1-4.1-6.9-6.1-10.7-3.3-6.1-9.3-15.5-22.5-35.6-10.2-15.5-41.1-56.3-47-62.1-.9-.8-3.4-3.7-5.6-6.3-5.9-7-25.4-27.4-37.5-39.2-17.4-16.9-23-20.6-36.3-24.3-8.1-2.2-19.4-2.6-27.4-1.1z"/><path d="M867 798.8c-3.2.5-16.4 5.8-19.8 7.9-3.5 2.2-4.8 3.4-9.7 8.2-13 13.1-18 25.1-17.9 43.6 0 8.7.4 11.1 3.1 18.7 4.2 11.4 8.9 18.1 21.5 30.4 5.7 5.6 13.2 13.4 16.8 17.5 3.6 4 7.4 8.3 8.5 9.4 1.9 2 9.7 11.7 12.9 16 .9 1.1 3 3.9 4.8 6.2 5.1 6.4 22.8 32.8 22.8 33.9 0 .4 2.2 4.3 5 8.9 10.8 17.9 27.5 55.8 33.5 76 1.5 4.9 3.2 10.8 3.9 13 3.7 11.5 4.9 16.5 8.1 33 4.2 22.1 4.6 24.5 5 28.7.1 1.8.8 7.8 1.4 13.3 1.5 12.3 2.1 54 1 69-1.3 19-5 45.1-8.5 60.6-9.2 41.2-25.8 84.2-46 119.4-5.1 8.9-23.1 36-27.6 41.5-1.5 1.9-5 6.3-7.7 9.8-5.5 7-16.2 19.3-20.2 23.2-4.1 4-11.8 16.4-13.8 22.3-5.1 14.7-4.6 28.9 1.4 43.7 8.7 21.2 31 35.9 54.5 36 11.7 0 28.2-5 35-10.6 3.9-3.3 14.1-13.6 19.5-19.9 3.3-3.8 6.7-7.7 7.5-8.6.8-.8 2.9-3.2 4.5-5.3 1.7-2.1 3.9-4.8 5-6.1 1.1-1.3 4-5.1 6.5-8.5 2.5-3.4 5.7-7.6 7.2-9.4 2.7-3.3 21.2-30.6 25.8-38.1 2.5-4.1 4.3-7.3 7.8-13.8 1.1-2.1 2.5-4.4 3.1-5.1 1.3-1.6 13.7-26 17-33.6 1.4-3 3.5-7.8 4.7-10.5 7.3-16 14.9-35.9 19-49.5 1.4-4.7 3.4-11.4 4.5-15 4.6-15 10.8-41.5 13.2-55.5 6.8-40.6 8.1-55.5 8.1-94 0-33-.5-39.9-5.5-81-1.7-14.2-7.9-43.5-12.4-58.5-.7-2.5-1.6-6.1-2-8-1.9-9.2-16.2-49.9-23-65-5.9-13.3-21.4-44.6-25.9-52.5-1.9-3.3-4.5-7.8-5.7-10-1.2-2.2-3.2-5.4-4.5-7.1-1.3-1.7-2.4-3.5-2.4-3.9 0-1.2-14.5-22.4-20.4-29.9-1.7-2.2-3.8-5-4.6-6.2-4-5.8-13-17.1-20.6-25.8-1-1.1-4.4-5.1-7.7-9-3.4-3.9-13.3-14.3-22.2-23.1-17.8-17.7-23.3-21.4-37.8-25.4-7.3-2-18.7-2.5-26.7-1.3z"/><path d="M688.4 912.4c-10.4 3.4-18 8.1-25.6 15.7-7 7.1-9.4 10.9-13.5 21.8-3.8 9.8-4.4 19.3-2.2 30.7 3.2 16.6 5.5 20.1 28.4 42.9 21.2 21.1 29.2 30.3 36.9 42.5 2.7 4.1 5.7 8.7 6.7 10.2 3.7 5.3 14 24.9 17.5 33.3 3 7.2 6.5 17 8.7 24.5.9 3 2.3 7.7 3.1 10.5 2 6.8 5.3 24.5 6.2 33 .3 3.8.8 8.8 1 11 .7 6.4.6 31.3-.1 39-3.1 33.6-11.3 64.3-24.2 90-5.6 11-12.8 23.7-16.5 29-1.6 2.2-3.6 5.1-4.5 6.5-1 1.4-4.5 5.9-7.8 10-20.5 25.1-24.1 46.7-12 71.5 14 29 48.8 41.1 78 27.1 9.9-4.9 15.5-9.5 24.5-20.2 8.9-10.9 30.9-42.5 31-44.7 0-.5 1.1-2.3 2.4-4 5.6-7.5 21.1-41.4 28.3-61.7 15-42.7 22.2-87.9 20.9-131.5-.9-30.2-1.7-37.1-7-63.5-5.3-26.2-9.2-39.6-19.6-66.5-3.8-10.2-14.5-33-18.7-40-7.4-12.5-10.3-17.7-10.3-18.2 0-.8-6.9-11.2-9-13.5-.8-.9-3.1-4-5-6.9-11.7-17.2-36.2-44.6-54.5-60.9-7.4-6.6-16.6-12.4-25.3-16.1-7-2.9-8.8-3.3-19.2-3.5-9.8-.3-12.5 0-18.6 2z"/></svg>