<svg xmlns="http://www.w3.org/2000/svg" viewBox="0 0 1450.39 450.81"><defs><style>.cls-1{fill:#009489;stroke-width:14px;}.cls-1,.cls-3,.cls-4{stroke:#000;stroke-miterlimit:10;}.cls-2{font-size:300px;font-family:Pacifico, Pacifico;}.cls-3{fill:none;stroke-linecap:round;stroke-width:21px;}.cls-4{stroke-width:5px;}</style></defs><title>logo</title><g id="Ebene_2" data-name="Ebene 2"><circle class="cls-1" cx="204.25" cy="204.25" r="197.25"/><text class="cls-2" transform="translate(496.25 314.58)">exclamo</text></g><g id="Ebene_4" data-name="Ebene 4"><path class="cls-3" d="M242.07,397.21s41.62,34.87,11.25,87.75" transform="translate(-42.58 -175.75)"/><path class="cls-3" d="M276,369s62.26,59.77,8.42,140.35" transform="translate(-42.58 -175.75)"/><path class="cls-3" d="M308.38,345.34S389,422.69,319.27,527" transform="translate(-42.58 -175.75)"/></g><g id="Ebene_6" data-name="Ebene 6"><path class="cls-4" d="M99.53,256.11s75.83-6.1,78.68,74.26a47.23,47.23,0,0,0-1.6,4.48c-1.56,5.31,4.15,39.38,14.58,51.26s10.56,15.64-3.05,19.87a27.09,27.09,0,0,1-8.74.31l6.7,19.86s4.05,8.28-9.57,12.18c0,0-6.18,2.14.14,4.17s6.84,2.26,8,6-3.62,3.63-2.8,12.86S183.51,473,183.51,473s1.31,15.72-27.91,17.25S120.87,491.5,111,494.6a148.63,148.63,0,0,0-15.81,5.82S-.4,368.13,99.53,256.11Z" transform="translate(-42.58 -175.75)"/></g></svg>