<svg xmlns="http://www.w3.org/2000/svg" viewBox="0 0 1450.3 408.5"><defs><style>.cls-1{fill:#009489;stroke-width:14px;}.cls-1,.cls-2,.cls-3{stroke:#000;stroke-miterlimit:10;}.cls-2{fill:none;stroke-linecap:round;stroke-width:21px;}.cls-3{stroke-width:5px;}</style></defs><title>logo</title><g id="Ebene_2" data-name="Ebene 2"><circle class="cls-1" cx="204.25" cy="204.25" r="197.25"/><path d="M606.73,490.33q-13.68,0-23.94-5.07a49.54,49.54,0,0,1-17.1-13.64,58.93,58.93,0,0,1-10.25-19.83A80.82,80.82,0,0,1,552,428.16a75,75,0,0,1,3.06-19.3q3.06-11.21,6.33-19.88a92.2,92.2,0,0,1,8.24-16.55,65.64,65.64,0,0,1,11.58-13.88A53.48,53.48,0,0,1,596.09,349a45.83,45.83,0,0,1,18.29-3.54,43.13,43.13,0,0,1,15.25,2.64,37.22,37.22,0,0,1,12.24,7.38A33.36,33.36,0,0,1,650,367,37.24,37.24,0,0,1,652.94,382q0,8.88-5.94,19.91a80.06,80.06,0,0,1-13.87,18.9,87.78,87.78,0,0,1-18.87,14,102.44,102.44,0,0,1-23.7,9.6,45.07,45.07,0,0,0,4.33,6.44,19.45,19.45,0,0,0,4.34,4,14.46,14.46,0,0,0,4.63,2,22.82,22.82,0,0,0,5.22.57,55.47,55.47,0,0,0,18.53-3.44,121.49,121.49,0,0,0,19-8.59A162.87,162.87,0,0,0,664,434.25a149.16,149.16,0,0,0,13.92-11.53l18.9,19.19a195.67,195.67,0,0,1-27.4,24.29q-6.3,4.51-13.55,8.9a121.69,121.69,0,0,1-15.23,7.77,103.72,103.72,0,0,1-16.55,5.43A74.83,74.83,0,0,1,606.73,490.33Zm-19.56-69.76a29.94,29.94,0,0,0,11.55-2.65,52.46,52.46,0,0,0,11.61-6.81,55.34,55.34,0,0,0,10.51-11.17q5.14-7,5.15-11.6a20.87,20.87,0,0,0-2.42-10.6q-2.43-4.15-6-4.15a22.56,22.56,0,0,0-18.31,8.23,30.7,30.7,0,0,0-4.85,8.31q-1.85,4.65-4.26,11.53A44.11,44.11,0,0,0,587.47,413Q587.17,417.41,587.17,420.57Z" transform="translate(-42.58 -175.75)"/><path d="M678.29,424.05c0,2.91,0,5.73-.15,8.49s-.15,5.33-.15,7.73a64.56,64.56,0,0,0,.3,6.54,16.05,16.05,0,0,0,1.24,5,8,8,0,0,0,2.64,3.31,7.81,7.81,0,0,0,4.61,1.2c1.08,0,2.27-.65,3.59-2a43.13,43.13,0,0,0,4.54-5.56q2.57-3.6,5.79-8.57T708,429.46q-1.46-8.71-8.93-24.34-11.73-24.33-17.43-41.91a4.94,4.94,0,0,1-.3-1.5,9.87,9.87,0,0,1,2.2-5.71,26.11,26.11,0,0,1,5.64-5.55,36.71,36.71,0,0,1,7.47-4.29,19.53,19.53,0,0,1,7.69-1.73,10.84,10.84,0,0,1,5,1.06,5.94,5.94,0,0,1,3.22,3.15q8.79,25.69,5.13,12.62-1.76-6,16.85,34.7,1.17-3.75,25.34-25.09A197.19,197.19,0,0,1,780,355.25a26.75,26.75,0,0,1,6.88-3.6,19.12,19.12,0,0,1,5.86-1.06,12,12,0,0,1,5.93,1.43,13.31,13.31,0,0,1,4.32,3.83,16.83,16.83,0,0,1,2.64,5.56,23.8,23.8,0,0,1,.88,6.46,23.33,23.33,0,0,1-1.9,9.24,15.35,15.35,0,0,1-5.86,7A156.36,156.36,0,0,0,777,400.62q-14.35,13.22-28.13,27.94,3.23,6,6.52,11.28a106.84,106.84,0,0,0,6.37,9.25,35.91,35.91,0,0,0,5.94,6.19,8.88,8.88,0,0,0,5.34,2.24A25.92,25.92,0,0,0,780.9,456a76.59,76.59,0,0,0,9.81-4q5.2-2.54,10.62-5.76t10.33-6.78q4.9-3.57,8.94-7.06a56,56,0,0,0,6.51-6.52q0,5,.08,9t.07,7.73q0,3.69.07,7c0,2.23.08,4.7.08,7.44A136.9,136.9,0,0,1,815,467.51,134.6,134.6,0,0,1,798,478.32a121.85,121.85,0,0,1-19.85,8.53,67,67,0,0,1-21.09,3.48q-6,0-15.17-7.86T722.23,457q-6.3,7.1-12,13.11t-10.69,10.56a55.68,55.68,0,0,1-9.38,7.09,16.33,16.33,0,0,1-8,2.55q-7.33,0-12-3.55a26.29,26.29,0,0,1-7.54-9.08,44.24,44.24,0,0,1-4.1-12,88.59,88.59,0,0,1-1.54-12.5Z" transform="translate(-42.58 -175.75)"/><path d="M871.42,490.33q-13.56,0-23.81-5A50.8,50.8,0,0,1,830.43,472,57.53,57.53,0,0,1,820,452.69a74.06,74.06,0,0,1-3.54-22.85,86.75,86.75,0,0,1,2.94-20.37,170.7,170.7,0,0,1,6.41-20.72,99.39,99.39,0,0,1,8.54-16.92,68,68,0,0,1,11.78-14.14A54.7,54.7,0,0,1,861,348a44.93,44.93,0,0,1,18.11-3.59A50.87,50.87,0,0,1,895.59,347a39.54,39.54,0,0,1,12.94,7.1A33,33,0,0,1,917,364.87a30.23,30.23,0,0,1,3,13.4,34.62,34.62,0,0,1-1.43,9.82A47,47,0,0,1,913,399.44q-4.12,6.53-8,8.86a16.65,16.65,0,0,1-8.8,2.35q-7.41,0-9.57-3.67-3.55-5.7-2.24-10.1.44-2.34,2.63-10.84a25.19,25.19,0,0,0,.14-5.28,19.94,19.94,0,0,0-.73-5.86,3.05,3.05,0,0,0-3.2-2.34A17.76,17.76,0,0,0,873,375.42a25.65,25.65,0,0,0-7.22,7.47,61.64,61.64,0,0,0-5.91,13,127.19,127.19,0,0,0-4.16,14.14A71.6,71.6,0,0,0,854.21,421q-.29,5.2-.29,8.72a67.47,67.47,0,0,0,1,11,29.6,29.6,0,0,0,3.79,10.47,25.41,25.41,0,0,0,7.36,7.91q4.53,3.15,11.67,3.15t15.53-4.32A109.79,109.79,0,0,0,910.29,447a156.44,156.44,0,0,0,16.33-14.5A189.62,189.62,0,0,0,940,417.53l10.11,17a192.1,192.1,0,0,1-23.73,28,144.5,144.5,0,0,1-11.8,10.26,103.12,103.12,0,0,1-13.33,8.86,79.22,79.22,0,0,1-14.5,6.3A49.82,49.82,0,0,1,871.42,490.33Z" transform="translate(-42.58 -175.75)"/><path d="M968.77,490.33q-7.87,0-14.66-6.84T942.28,465.1a124.32,124.32,0,0,1-7.88-26.75,173.92,173.92,0,0,1-2.84-31.93q0-14.37,4.22-38.38L940,344l6.4-24q6.39-24,12.83-38.45a250.37,250.37,0,0,1,14-27.06,146.83,146.83,0,0,1,15.83-21.93,73.52,73.52,0,0,1,17.31-14.69,35.69,35.69,0,0,1,18.35-5.34,21.84,21.84,0,0,1,11.2,2.59,19.18,19.18,0,0,1,6.94,6.83,29.52,29.52,0,0,1,3.55,9.63,58.55,58.55,0,0,1,1,10.95,126.23,126.23,0,0,1-3.28,28.21,213.54,213.54,0,0,1-8.83,28.87q-5.57,14.51-12.87,29.09t-15.23,29Q999.3,372.08,991.3,386t-14.75,27.21a33.17,33.17,0,0,0-1.55,3.84q-.81,2.37-1.54,5.1T972,428c-.49,2.07-.88,4.08-1.17,6.05v2.07a34,34,0,0,0,.8,7.46,40.27,40.27,0,0,0,2,6.5,19,19,0,0,0,2.5,4.58c.88,1.13,1.71,1.7,2.49,1.7a21.6,21.6,0,0,0,6.53-1.18,61.11,61.11,0,0,0,7.8-3.18q4.13-2,8.47-4.58t8.4-5.24q9.45-6.21,19.8-14.33l12.94,30.88q-13.44,8.91-26.55,15.87-5.73,2.93-11.84,5.78t-12.3,5.09A99.83,99.83,0,0,1,979.78,489,50.41,50.41,0,0,1,968.77,490.33Zm.14-116.11q6.62-11.82,14-26.59t14-30.43q6.62-15.66,11.46-31.25a146.6,146.6,0,0,0,6.17-29q0-4.28-.2-7.31t-1.32-3q-4,0-8.68,5.57a75.45,75.45,0,0,0-9.3,15.06q-4.65,9.5-11.1,30.89l-6.46,21.4s-1.32,6.62-3.94,19.86A244.37,244.37,0,0,0,968.91,374.22Z" transform="translate(-42.58 -175.75)"/><path d="M1168.85,454a137.35,137.35,0,0,1-9,11.11,110.31,110.31,0,0,1-12.67,12.15,79.51,79.51,0,0,1-15.09,9.78,36,36,0,0,1-16.11,4,22.65,22.65,0,0,1-16.23-6.17q-6.49-6.15-11.22-17.9a72.29,72.29,0,0,1-8.71,8.26,78.3,78.3,0,0,1-11.3,7.61,73.11,73.11,0,0,1-12.77,5.58,42.56,42.56,0,0,1-13.29,2.18,34,34,0,0,1-13.7-2.89,35.62,35.62,0,0,1-11.79-8.27,40.4,40.4,0,0,1-8.2-13.15,47,47,0,0,1-3.08-17.51,86.62,86.62,0,0,1,3.09-22.48,144.34,144.34,0,0,1,9.58-25,135.38,135.38,0,0,1,13.93-23.21,102.35,102.35,0,0,1,16.28-17.08,79.64,79.64,0,0,1,18.64-11.61,49.19,49.19,0,0,1,20-4.3,9.13,9.13,0,0,1,5.3,1.33,13.31,13.31,0,0,1,3.17,3l2.43,3.33a6.84,6.84,0,0,0,3,2.37,13,13,0,0,0,3.61,1,31,31,0,0,0,3.76.23c1.08,0,2.18,0,3.31-.08s2.24-.07,3.32-.07a18.53,18.53,0,0,1,4.12.44,6.92,6.92,0,0,1,3.39,1.93,9.87,9.87,0,0,1,2.28,4.14,26.37,26.37,0,0,1,.8,7.26,93.19,93.19,0,0,1-1.46,15.53q-1.47,8.54-3.36,17.49t-4.31,20.42a96.64,96.64,0,0,0-2.42,19.32,34.9,34.9,0,0,0,1.25,10.5,5.12,5.12,0,0,0,5.35,3.78,15.72,15.72,0,0,0,6.44-1.52,40.4,40.4,0,0,0,6.81-4,77,77,0,0,0,6.89-5.6q3.43-3.12,6.52-6.46a225,225,0,0,0,14.5-17.72Zm-125.67-11.47a51.54,51.54,0,0,0,.51,7.33,22.17,22.17,0,0,0,1.84,6.34,12.25,12.25,0,0,0,3.52,4.53,8.68,8.68,0,0,0,5.57,1.74q5.43,0,9.83-4.72a45.72,45.72,0,0,0,7.63-11.35,81,81,0,0,0,5.21-13.72,83.74,83.74,0,0,0,2.57-11.8l10.93-47.62a25.13,25.13,0,0,0-11.72,3,43.55,43.55,0,0,0-10.77,8.06,72.36,72.36,0,0,0-9.3,11.61,107.07,107.07,0,0,0-8.35,16.12,103.64,103.64,0,0,0-5.79,16.85A60.68,60.68,0,0,0,1043.18,442.56Z" transform="translate(-42.58 -175.75)"/><path d="M1218.08,463.74c0-1.27.1-3.09.29-5.44s.49-5.05.88-8.09.83-6.25,1.32-9.64,1-6.74,1.47-10.07q1.61-11.78,4-25.31h-2.2a42,42,0,0,0-4,6.64q-2.28,4.41-6.38,13T1202.92,447q-6.37,13.63-16.48,33.4-2.93,5.83-6.81,7.89a17.94,17.94,0,0,1-8.57,2.06q-6,0-9.67-2.48a16.34,16.34,0,0,1-5.64-6.69,31.1,31.1,0,0,1-2.63-9.52,89.76,89.76,0,0,1-.66-11q0-6,.73-14.31t1.9-17.4q1.17-9.14,3.45-20.86t4-20.45q1.68-8.72,3.44-16t3.23-11.83a59.93,59.93,0,0,1,2.78-7.54,14,14,0,0,1,3-4.36,8.64,8.64,0,0,1,4-2.07,29,29,0,0,1,6-.52,80.73,80.73,0,0,1,8.71.37,8.28,8.28,0,0,1,4.69,1.78,6.23,6.23,0,0,1,1.83,4.06,71.6,71.6,0,0,1,.29,7.25c0,1.67-.07,3.6-.22,5.77s-.36,4.48-.66,6.94-.49,5-.87,7.54q-1,7.39-1.18,7.69-2.05,10.07-4.24,22.48l1.61,1.77q.29-.45,3.88-7.84t7.76-14.63q4.18-7.25,9-15.16t9.23-14a51.51,51.51,0,0,1,9-10.05,17.11,17.11,0,0,1,11.35-4,16,16,0,0,1,10.55,3.63q4.39,3.62,4.39,10.27a77.78,77.78,0,0,1-.73,10.94,90.75,90.75,0,0,1-1.76,10.06q-1,3.84-2.34,9.46-1,4.88-3.66,14.05a33,33,0,0,0-.88,4.28,9.12,9.12,0,0,0-.15,1.19l1.61,1.77c.2-.3,1.56-2.88,4.1-7.76s5.3-9.74,8.28-14.57,6.15-9.9,9.52-15.22,6.52-10,9.45-14.05a71.1,71.1,0,0,1,8.5-10,14.46,14.46,0,0,1,10.4-4.07,18.62,18.62,0,0,1,11.64,3.63q4.76,3.62,4.76,10.27a175.34,175.34,0,0,1-1,19.37q-1,9.17-3.08,20.26T1311.68,419a173.21,173.21,0,0,0-1,19.29q0,8,2,13t5,5a17.52,17.52,0,0,0,6.45-1.33,49.73,49.73,0,0,0,6.88-3.4,56,56,0,0,0,6.89-4.81q3.36-2.73,6.44-5.69a168.46,168.46,0,0,0,14.21-15.37l2.49,34.72q-6.45,5-12.82,10.31a111.35,111.35,0,0,1-13.47,9.67,74,74,0,0,1-15.6,7.11,61.74,61.74,0,0,1-19.19,2.77,12.46,12.46,0,0,1-8.87-3.37,23.82,23.82,0,0,1-5.78-9.4,62.36,62.36,0,0,1-3.15-14.21,153.16,153.16,0,0,1-1-17.79q0-9.31.66-19.74t1.83-21.07h-2.2L1251.77,480q-3.81,6.12-8.49,8.22a26.14,26.14,0,0,1-10.84,2.11,10.76,10.76,0,0,1-7.47-2.48,16.53,16.53,0,0,1-4.33-6.4,33.51,33.51,0,0,1-2.05-8.61A84.1,84.1,0,0,1,1218.08,463.74Z" transform="translate(-42.58 -175.75)"/><path d="M1436.49,377.39a78.84,78.84,0,0,1,6.37,17.95,97.23,97.23,0,0,1,2.13,21.31,82,82,0,0,1-1.91,17.43,89.94,89.94,0,0,1-5.49,17,83.4,83.4,0,0,1-8.79,15.38,62.77,62.77,0,0,1-11.87,12.45,56.29,56.29,0,0,1-14.57,8.35,46.08,46.08,0,0,1-16.85,3.07q-12.88,0-22-5.64a46.82,46.82,0,0,1-15-14.72,65.45,65.45,0,0,1-8.57-20.51,99.7,99.7,0,0,1-2.71-23.14q0-19.33,4.84-33.33a72.47,72.47,0,0,1,13.84-24.31,63.87,63.87,0,0,1,22.05-16.26,69.84,69.84,0,0,1,29.29-5.93,77.36,77.36,0,0,1,26.08,4.32,99.5,99.5,0,0,1,22.78,11.57,97.06,97.06,0,0,1,19.77,18.24q9.15,11,17.07,20.94l-2.79,20.66a84.46,84.46,0,0,0-10.69-11.43q-6.73-6.15-14.28-13.62a120.9,120.9,0,0,0-14.87-12.67q-7.34-5.21-12.6-8.72Zm-45.26,84.82c3.31,0,6.54-1.69,9.66-5.06a47.6,47.6,0,0,0,8.21-12.74,83.76,83.76,0,0,0,5.64-18.6,103.43,103.43,0,0,0,2.12-19.41,72.33,72.33,0,0,0-1-12.53,38.71,38.71,0,0,0-3.08-10,18.61,18.61,0,0,0-5.27-6.74,12.34,12.34,0,0,0-7.77-2.49q-6,0-11.42,5.13a48.11,48.11,0,0,0-9.53,13.11,79.38,79.38,0,0,0-6.44,17.65,93,93,0,0,0-2.34,21.83,54.09,54.09,0,0,0,1.17,11.57,29.86,29.86,0,0,0,3.66,9.45,18.37,18.37,0,0,0,16.41,8.86Z" transform="translate(-42.58 -175.75)"/></g><g id="Ebene_4" data-name="Ebene 4"><path class="cls-2" d="M242.07,397.21s41.62,34.87,11.25,87.75" transform="translate(-42.58 -175.75)"/><path class="cls-2" d="M276,369s62.26,59.77,8.42,140.35" transform="translate(-42.58 -175.75)"/><path class="cls-2" d="M308.38,345.34S389,422.69,319.27,527" transform="translate(-42.58 -175.75)"/></g><g id="Ebene_6" data-name="Ebene 6"><path class="cls-3" d="M99.53,256.11s75.83-6.1,78.68,74.26a47.23,47.23,0,0,0-1.6,4.48c-1.56,5.31,4.15,39.38,14.58,51.26s10.56,15.64-3.05,19.87a27.09,27.09,0,0,1-8.74.31l6.7,19.86s4.05,8.28-9.57,12.18c0,0-6.18,2.14.14,4.17s6.84,2.26,8,6-3.62,3.63-2.8,12.86S183.51,473,183.51,473s1.31,15.72-27.91,17.25S120.87,491.5,111,494.6a148.63,148.63,0,0,0-15.81,5.82S-.4,368.13,99.53,256.11Z" transform="translate(-42.58 -175.75)"/></g></svg>